<?xml version="1.0" encoding="UTF-8" standalone="no"?>
<!-- Created with Inkscape (http://www.inkscape.org/) -->

<svg
   width="133.4032mm"
   height="110.21272mm"
   viewBox="-6 -4.5 143.825 118.82282"
   version="1.1"
   id="svg1"
   xml:space="preserve"
   xmlns:xlink="http://www.w3.org/1999/xlink"
   xmlns="http://www.w3.org/2000/svg"
   xmlns:svg="http://www.w3.org/2000/svg"><defs
     id="defs1"><linearGradient
       id="linearGradient5"><stop
         style="stop-color:#05dffd;stop-opacity:1;"
         offset="0"
         id="stop5" /><stop
         style="stop-color:#4217b4;stop-opacity:1;"
         offset="1"
         id="stop6" /></linearGradient><linearGradient
       id="swatch2"><stop
         style="stop-color:#000000;stop-opacity:0.18431402;"
         offset="0"
         id="stop2" /></linearGradient><linearGradient
       xlink:href="#linearGradient5"
       id="linearGradient110"
       gradientUnits="userSpaceOnUse"
       gradientTransform="matrix(1,0,0,0.77403512,4.8389812,24.18154)"
       x1="102.24591"
       y1="-2.2471752"
       x2="102.24591"
       y2="183.5183" /><linearGradient
       xlink:href="#linearGradient5"
       id="linearGradient113"
       gradientUnits="userSpaceOnUse"
       gradientTransform="matrix(1,0,0,0.77403512,4.8389812,24.18154)"
       x1="102.24591"
       y1="-2.2471752"
       x2="102.24591"
       y2="183.5183" /><linearGradient
       xlink:href="#linearGradient5"
       id="linearGradient117"
       gradientUnits="userSpaceOnUse"
       gradientTransform="matrix(1,0,0,0.77403512,4.8389812,24.18154)"
       x1="102.24591"
       y1="-2.2471752"
       x2="102.24591"
       y2="183.5183" /><linearGradient
       xlink:href="#linearGradient5"
       id="linearGradient120"
       gradientUnits="userSpaceOnUse"
       gradientTransform="matrix(1,0,0,0.77403512,4.8389812,24.18154)"
       x1="102.24591"
       y1="-2.2471752"
       x2="102.24591"
       y2="183.5183" /><linearGradient
       xlink:href="#linearGradient5"
       id="linearGradient124"
       gradientUnits="userSpaceOnUse"
       gradientTransform="matrix(1,0,0,0.77403512,4.8389812,24.18154)"
       x1="102.24591"
       y1="-2.2471752"
       x2="102.24591"
       y2="183.5183" /><linearGradient
       xlink:href="#linearGradient5"
       id="linearGradient127"
       gradientUnits="userSpaceOnUse"
       gradientTransform="matrix(1,0,0,0.77403512,4.8389812,24.18154)"
       x1="102.24591"
       y1="-2.2471752"
       x2="102.24591"
       y2="183.5183" /><linearGradient
       xlink:href="#linearGradient5"
       id="linearGradient130"
       gradientUnits="userSpaceOnUse"
       gradientTransform="matrix(1,0,0,0.77403512,4.8389812,24.18154)"
       x1="102.24591"
       y1="-2.2471752"
       x2="102.24591"
       y2="183.5183" /><linearGradient
       xlink:href="#linearGradient5"
       id="linearGradient133"
       gradientUnits="userSpaceOnUse"
       gradientTransform="matrix(1,0,0,0.77403512,4.8389812,24.18154)"
       x1="102.24591"
       y1="-2.2471752"
       x2="102.24591"
       y2="183.5183" /><linearGradient
       xlink:href="#linearGradient5"
       id="linearGradient137"
       gradientUnits="userSpaceOnUse"
       gradientTransform="matrix(1,0,0,0.77403512,4.8389812,24.18154)"
       x1="102.24591"
       y1="-2.2471752"
       x2="102.24591"
       y2="183.5183" /><linearGradient
       xlink:href="#linearGradient5"
       id="linearGradient140"
       gradientUnits="userSpaceOnUse"
       gradientTransform="matrix(1,0,0,0.77403512,4.8389812,24.18154)"
       x1="102.24591"
       y1="-2.2471752"
       x2="102.24591"
       y2="183.5183" /></defs><g
     id="layer1"
     transform="translate(-26.787389,-39.017809)"><path
       style="fill:url(#linearGradient110);stroke-width:0.263939"
       d="m 42.622598,97.957403 v 2.279957 2.28049 l 2.236039,-0.0403 2.236039,-0.0408 v -2.19935 -2.199337 l -2.236039,-0.0403 z"
       id="path97" /><path
       style="fill:url(#linearGradient113);stroke-width:0.263939"
       d="m 29.279743,97.671633 v 1.22215 c 0,0.67203 0.04391,1.265537 0.09767,1.319297 0.05376,0.0538 0.647784,0.0977 1.319816,0.0977 h 1.222148 v -1.319297 -1.31982 h -1.319816 z"
       id="path95" /><path
       style="fill:url(#linearGradient117);stroke-width:0.263939"
       d="m 53.118598,95.414406 c -0.203909,0.0783 -0.232027,0.589476 -0.232027,4.228167 0,2.276277 0.04391,4.182667 0.09767,4.236427 0.05376,0.0538 1.960153,0.0977 4.236434,0.0977 3.638686,0 4.149401,-0.0281 4.227649,-0.23203 0.04895,-0.12756 0.08888,-2.00594 0.08888,-4.173897 0,-3.747001 -0.01359,-3.949002 -0.283186,-4.093292 -0.304256,-0.16283 -7.725448,-0.220345 -8.135421,-0.06305 z"
       id="path93" /><path
       style="fill:url(#linearGradient120);stroke-width:0.263939"
       d="m 26.787389,94.738995 v 0.595313 0.595312 l 0.549837,-0.04547 c 0.519986,-0.043 0.552276,-0.07536 0.595312,-0.595312 L 27.978018,94.739 h -0.595317 z"
       id="path91" /><path
       style="fill:url(#linearGradient124);stroke-width:0.263939"
       d="m 35.291779,93.272935 v 1.832963 1.832446 h 1.832446 1.832963 v -1.832446 -1.832963 h -1.832963 z"
       id="path89" /><path
       style="fill:url(#linearGradient127);stroke-width:0.263939"
       d="m 48.927639,88.427753 -2.602425,0.03979 -2.602942,0.03979 -0.03979,2.529562 -0.04031,2.529044 h 2.642732 2.642733 v -2.569352 z"
       id="path87" /><path
       style="fill:url(#linearGradient130);stroke-width:0.263939"
       d="m 75.073847,87.263483 c -5.828575,-0.002 -6.651629,0.02565 -6.854362,0.228409 -0.202614,0.20262 -0.230477,1.023407 -0.230477,6.805787 0,3.616624 0.04015,6.680531 0.0894,6.808881 0.08042,0.20957 0.794132,0.22954 7.00164,0.19534 l 6.911723,-0.0377 0.03824,-6.882269 c 0.02996,-5.40822 -0.0015,-6.906886 -0.146761,-6.999056 -0.101612,-0.0645 -3.166029,-0.118142 -6.809403,-0.119372 z"
       id="path85" /><path
       style="fill:url(#linearGradient133);stroke-width:0.263939"
       d="m 57.285269,84.768544 v 3.299024 3.299023 h 3.372404 3.372404 v -3.299023 -3.299024 h -3.372404 z"
       id="path83" /><path
       style="fill:url(#linearGradient137);stroke-width:0.263939"
       d="m 101.83295,78.790615 c -13.353867,0.03695 -14.294091,0.05612 -14.650281,0.298173 -0.209341,0.142257 -0.456765,0.426178 -0.549838,0.630452 -0.124231,0.272657 -0.168982,4.220231 -0.168982,14.847673 0,13.349227 0.01908,14.504577 0.24753,14.838887 0.270242,0.39545 0.545651,0.60299 0.998389,0.75241 0.161287,0.0532 6.759568,0.0863 14.662682,0.0734 13.46438,-0.022 14.39335,-0.0398 14.75,-0.28216 0.20934,-0.14225 0.45677,-0.42566 0.54984,-0.62993 0.12424,-0.27269 0.16886,-4.21863 0.16846,-14.844055 -5.4e-4,-14.091723 -0.008,-14.484463 -0.28628,-14.941206 -0.19843,-0.325446 -0.4644,-0.516939 -0.86868,-0.625802 -0.4,-0.107708 -5.05751,-0.144927 -14.85284,-0.117822 z"
       id="path81" /><path
       style="fill:url(#linearGradient140);stroke-width:0.263939"
       d="m 105.10716,39.017849 c -7.401214,-0.0022 -14.77565,1.477669 -21.649329,4.401281 -5.165839,2.19721 -10.130902,5.312381 -14.510225,9.104354 -1.710065,1.480713 -4.781918,4.592182 -5.9955,6.072498 l -0.841809,1.026294 27.975553,0.07906 27.97556,0.07906 1.42214,0.325561 c 6.54954,1.500229 11.60715,5.457793 14.34744,11.227222 0.85525,1.800631 1.18893,2.779449 1.63298,4.788855 l 0.339,1.535307 v 16.715258 16.715261 l -0.33073,1.49396 c -0.96704,4.36653 -2.84158,7.72649 -6.00119,10.75542 -2.75144,2.63766 -5.77381,4.25169 -9.79682,5.23275 -0.94353,0.23009 -3.29658,0.25653 -29.153781,0.32815 l -28.127482,0.078 0.997872,1.17305 c 2.179472,2.56176 5.287254,5.48501 8.1995,7.71271 8.809489,6.73873 18.887203,10.49315 30.415721,11.33109 1.59993,0.11629 7.29887,-0.055 9.16378,-0.27543 18.49933,-2.1866 34.19665,-12.93517 42.82685,-29.32534 3.85794,-7.32685 5.94325,-15.42638 6.17223,-23.973215 0.18053,-6.73844 -0.7655,-13.048127 -2.89233,-19.287712 -6.05036,-17.750277 -20.71781,-31.204618 -38.92062,-35.70118 -4.35745,-1.076402 -8.80808,-1.611011 -13.24881,-1.612304 z"
       id="path79" /></g></svg>
